<svg width="40" height="40" viewBox="0 0 40 40" fill="none" xmlns="http://www.w3.org/2000/svg">
<path d="M31.6716 13.3398C33.5144 13.3398 35.0083 11.846 35.0083 10.0032C35.0083 8.16038 33.5144 6.6665 31.6716 6.6665C29.8288 6.6665 28.335 8.16038 28.335 10.0032C28.335 11.846 29.8288 13.3398 31.6716 13.3398Z" fill="url(#paint0_linear_30_2756)"/>
<path d="M31.458 22.0315C30.513 22.7865 29.828 23.3331 28.328 23.3331C26.8297 23.3331 26.1813 22.8148 25.2013 22.0315C24.068 21.1265 22.6597 19.9998 19.9897 19.9998C17.3213 19.9998 15.9147 21.1265 14.783 22.0315C13.803 22.8148 13.158 23.3331 11.658 23.3331C10.1613 23.3331 9.51467 22.8148 8.53634 22.0331C7.40467 21.1265 5.99967 19.9998 3.33301 19.9998V23.3331C4.82801 23.3331 5.47467 23.8515 6.45301 24.6331C7.58467 25.5398 8.99134 26.6665 11.658 26.6665C14.3247 26.6665 15.7347 25.5398 16.8663 24.6331C17.8447 23.8498 18.493 23.3331 19.9897 23.3331C21.4897 23.3331 22.1747 23.8798 23.1197 24.6348C24.2513 25.5398 25.6597 26.6665 28.328 26.6665C30.998 26.6665 32.4063 25.5398 33.5397 24.6348C34.5197 23.8515 35.168 23.3331 36.6663 23.3331V19.9998C33.998 19.9998 32.5897 21.1265 31.458 22.0315ZM28.328 31.6665C26.8297 31.6665 26.1813 31.1481 25.2013 30.3648C24.068 29.4598 22.6597 28.3331 19.9897 28.3331C17.3213 28.3331 15.9147 29.4598 14.783 30.3648C13.803 31.1481 13.158 31.6665 11.658 31.6665C10.1613 31.6665 9.51467 31.1481 8.53634 30.3665C7.40467 29.4598 5.99967 28.3331 3.33301 28.3331V31.6665C4.82801 31.6665 5.47467 32.1848 6.45301 32.9665C7.58467 33.8731 8.99134 34.9998 11.658 34.9998C14.3247 34.9998 15.7347 33.8731 16.8663 32.9665C17.8447 32.1831 18.493 31.6665 19.9897 31.6665C21.4897 31.6665 22.1747 32.2131 23.1197 32.9681C24.2513 33.8731 25.6597 34.9998 28.328 34.9998C30.998 34.9998 32.4063 33.8731 33.5397 32.9681C34.5197 32.1848 35.168 31.6665 36.6663 31.6665V28.3331C33.998 28.3331 32.5897 29.4598 31.458 30.3648C30.513 31.1198 29.828 31.6665 28.328 31.6665ZM18.333 9.03148L21.8397 12.5381L18.4113 16.8215C18.888 16.7281 19.4047 16.6665 19.9897 16.6665C22.6597 16.6665 24.068 17.7931 25.2013 18.6981C26.1813 19.4815 26.8297 19.9998 28.328 19.9998C29.828 19.9998 30.513 19.4531 31.458 18.6981C31.678 18.5231 31.9147 18.3365 32.163 18.1548L28.6697 14.6715L28.678 14.6631L19.5113 5.49648C19.3567 5.34157 19.173 5.21868 18.9708 5.13482C18.7686 5.05097 18.5519 5.00781 18.333 5.00781C18.1141 5.00781 17.8974 5.05097 17.6952 5.13482C17.493 5.21868 17.3093 5.34157 17.1547 5.49648L10.488 12.1631L12.8447 14.5198L18.333 9.03148Z" fill="url(#paint1_linear_30_2756)"/>
<defs>
<linearGradient id="paint0_linear_30_2756" x1="28.335" y1="10.0032" x2="35.0083" y2="10.0032" gradientUnits="userSpaceOnUse">
<stop stop-color="#00FFA3"/>
<stop offset="1" stop-color="#00EFFF"/>
</linearGradient>
<linearGradient id="paint1_linear_30_2756" x1="3.33301" y1="20.0038" x2="36.6663" y2="20.0038" gradientUnits="userSpaceOnUse">
<stop stop-color="#00FFA3"/>
<stop offset="1" stop-color="#00EFFF"/>
</linearGradient>
</defs>
</svg>
