<svg width="40" height="40" viewBox="0 0 40 40" fill="none" xmlns="http://www.w3.org/2000/svg">
<path d="M29.3001 17.0239C24.7401 7.20993 22.3681 3.48193 14.9181 3.63793C12.2641 3.69193 12.9001 1.71393 10.8761 2.46393C8.85605 3.21393 10.5901 4.31193 8.52205 6.00993C2.71805 10.7759 3.25205 15.1839 5.94405 25.6899C7.07805 30.1159 3.21005 30.3319 4.74005 34.6199C5.85805 37.7479 14.0981 39.0579 22.7901 35.8339C31.4841 32.6079 36.9621 26.2059 35.8441 23.0779C34.3141 18.7879 31.2221 21.1559 29.3001 17.0239ZM21.8481 33.1899C14.0841 36.0699 7.70405 34.3779 7.43405 33.6239C6.97005 32.3239 9.94005 27.9919 18.8161 24.6979C27.6921 21.4039 32.6461 22.6259 33.1641 24.0759C33.4701 24.9339 29.6141 30.3079 21.8481 33.1899ZM19.3521 26.2019C15.2941 27.7079 12.4741 29.4299 10.6461 30.9799C11.9321 32.1479 14.3401 32.4319 16.7381 31.5419C19.7921 30.4119 21.6701 27.8099 20.9281 25.7339L20.8961 25.6619C20.3941 25.8259 19.8801 26.0039 19.3521 26.2019Z" fill="url(#paint0_linear_30_2702)"/>
<defs>
<linearGradient id="paint0_linear_30_2702" x1="4" y1="19.9972" x2="35.9883" y2="19.9972" gradientUnits="userSpaceOnUse">
<stop stop-color="#00FFA3"/>
<stop offset="1" stop-color="#00EFFF"/>
</linearGradient>
</defs>
</svg>
