<svg width="40" height="40" viewBox="0 0 40 40" fill="none" xmlns="http://www.w3.org/2000/svg">
<path d="M31.0832 4.7499L32.0999 11.1832L37.9499 14.1666L34.9999 19.9999L37.9665 25.8332L32.0665 28.8166L31.0499 35.2499L24.5665 34.2332L19.9499 38.8332L15.3165 34.1666L8.8832 35.2332L7.84987 28.7499L2.0332 25.7832L4.99987 19.9499L2.04987 14.1666L7.89987 11.1499L8.91654 4.76657L15.3665 5.83324L19.9999 1.1499L24.6165 5.76657L31.0832 4.7499ZM15.8332 11.6666C15.1702 11.6666 14.5343 11.93 14.0654 12.3988C13.5966 12.8676 13.3332 13.5035 13.3332 14.1666C13.3332 14.8296 13.5966 15.4655 14.0654 15.9343C14.5343 16.4032 15.1702 16.6666 15.8332 16.6666C16.4962 16.6666 17.1321 16.4032 17.601 15.9343C18.0698 15.4655 18.3332 14.8296 18.3332 14.1666C18.3332 13.5035 18.0698 12.8676 17.601 12.3988C17.1321 11.93 16.4962 11.6666 15.8332 11.6666ZM24.1665 23.3332C23.5035 23.3332 22.8676 23.5966 22.3988 24.0655C21.9299 24.5343 21.6665 25.1702 21.6665 25.8332C21.6665 26.4963 21.9299 27.1322 22.3988 27.601C22.8676 28.0698 23.5035 28.3332 24.1665 28.3332C24.8296 28.3332 25.4655 28.0698 25.9343 27.601C26.4031 27.1322 26.6665 26.4963 26.6665 25.8332C26.6665 25.1702 26.4031 24.5343 25.9343 24.0655C25.4655 23.5966 24.8296 23.3332 24.1665 23.3332ZM14.0165 28.3332L28.3332 14.0166L25.9832 11.6666L11.6665 25.9832L14.0165 28.3332Z" fill="url(#paint0_linear_30_2689)"/>
<defs>
<linearGradient id="paint0_linear_30_2689" x1="2.0332" y1="19.9916" x2="37.9665" y2="19.9916" gradientUnits="userSpaceOnUse">
<stop stop-color="#00FFA3"/>
<stop offset="1" stop-color="#00EFFF"/>
</linearGradient>
</defs>
</svg>
