<svg width="190" height="40" viewBox="0 0 190 40" fill="none" xmlns="http://www.w3.org/2000/svg">
<path d="M188.334 10.2V13.56H181.254C180.481 13.56 179.814 13.7066 179.254 14C178.694 14.2933 178.414 14.7066 178.414 15.24C178.414 15.56 178.481 15.8533 178.614 16.12C178.748 16.36 178.894 16.56 179.054 16.72C179.241 16.88 179.508 17.0533 179.854 17.24C180.228 17.4 180.508 17.52 180.694 17.6C180.908 17.6533 181.761 17.92 183.254 18.4C184.748 18.88 185.854 19.28 186.574 19.6C187.294 19.92 187.841 20.36 188.214 20.92C188.614 21.4533 188.868 21.9866 188.974 22.52C189.081 23.0266 189.134 23.5333 189.134 24.04C189.134 27.6133 186.681 29.4 181.774 29.4H174.854V26.04H181.774C184.281 26.04 185.534 25.3733 185.534 24.04C185.534 23.4 185.161 22.8666 184.414 22.44C183.694 22.0133 182.801 21.6533 181.734 21.36C180.694 21.0666 179.641 20.7333 178.574 20.36C177.534 19.96 176.641 19.3333 175.894 18.48C175.174 17.6 174.814 16.52 174.814 15.24C174.814 13.6133 175.441 12.3733 176.694 11.52C177.948 10.64 179.468 10.2 181.254 10.2H188.334Z" fill="white"/>
<path d="M170.209 10.2V13.56H163.129C162.356 13.56 161.689 13.7066 161.129 14C160.569 14.2933 160.289 14.7066 160.289 15.24C160.289 15.56 160.356 15.8533 160.489 16.12C160.623 16.36 160.769 16.56 160.929 16.72C161.116 16.88 161.383 17.0533 161.729 17.24C162.103 17.4 162.383 17.52 162.569 17.6C162.783 17.6533 163.636 17.92 165.129 18.4C166.623 18.88 167.729 19.28 168.449 19.6C169.169 19.92 169.716 20.36 170.089 20.92C170.489 21.4533 170.743 21.9866 170.849 22.52C170.956 23.0266 171.009 23.5333 171.009 24.04C171.009 27.6133 168.556 29.4 163.649 29.4H156.729V26.04H163.649C166.156 26.04 167.409 25.3733 167.409 24.04C167.409 23.4 167.036 22.8666 166.289 22.44C165.569 22.0133 164.676 21.6533 163.609 21.36C162.569 21.0666 161.516 20.7333 160.449 20.36C159.409 19.96 158.516 19.3333 157.769 18.48C157.049 17.6 156.689 16.52 156.689 15.24C156.689 13.6133 157.316 12.3733 158.569 11.52C159.823 10.64 161.343 10.2 163.129 10.2H170.209Z" fill="white"/>
<path d="M147.452 18.12V21.72C146.439 20.9466 145.199 20.56 143.732 20.56C142.479 20.56 141.505 20.8133 140.812 21.32C140.119 21.8 139.772 22.4933 139.772 23.4C139.772 25.16 141.079 26.04 143.692 26.04H148.972V18.4C148.972 15.1733 147.399 13.56 144.252 13.56H137.852V10.2H144.452C147.039 10.2 149.025 10.84 150.412 12.12C151.799 13.4 152.492 15.24 152.492 17.64V29.4H143.572C141.305 29.4 139.505 28.8933 138.172 27.88C136.839 26.8666 136.172 25.3866 136.172 23.44C136.172 21.4933 136.879 20.0133 138.292 19C139.705 17.9866 141.479 17.48 143.612 17.48C144.812 17.48 146.092 17.6933 147.452 18.12Z" fill="white"/>
<path d="M118.036 29.4H114.276V11C114.276 7.85334 115.116 5.4 116.796 3.64C118.503 1.88 120.756 1 123.556 1C126.543 1 128.85 1.85333 130.476 3.56C132.13 5.26667 132.956 7.44 132.956 10.08C132.956 11.7333 132.65 13.1733 132.036 14.4C131.45 15.6267 130.65 16.5733 129.636 17.24C128.623 17.9067 127.543 18.4 126.396 18.72C125.25 19.04 124.05 19.2 122.796 19.2H119.796V15.68H123.236C125.023 15.68 126.423 15.1467 127.436 14.08C128.476 12.9867 128.996 11.6267 128.996 10C128.996 8.4 128.516 7.09333 127.556 6.08C126.623 5.04 125.276 4.52 123.516 4.52C121.81 4.52 120.463 5.10667 119.476 6.28C118.516 7.42667 118.036 8.94667 118.036 10.84V29.4Z" fill="white"/>
<path d="M109.272 10.2V13.56H102.192C101.419 13.56 100.752 13.7066 100.192 14C99.632 14.2933 99.352 14.7066 99.352 15.24C99.352 15.56 99.4186 15.8533 99.552 16.12C99.6853 16.36 99.832 16.56 99.992 16.72C100.179 16.88 100.445 17.0533 100.792 17.24C101.165 17.4 101.445 17.52 101.632 17.6C101.845 17.6533 102.699 17.92 104.192 18.4C105.685 18.88 106.792 19.28 107.512 19.6C108.232 19.92 108.779 20.36 109.152 20.92C109.552 21.4533 109.805 21.9866 109.912 22.52C110.019 23.0266 110.072 23.5333 110.072 24.04C110.072 27.6133 107.619 29.4 102.712 29.4H95.792V26.04H102.712C105.219 26.04 106.472 25.3733 106.472 24.04C106.472 23.4 106.099 22.8666 105.352 22.44C104.632 22.0133 103.739 21.6533 102.672 21.36C101.632 21.0666 100.579 20.7333 99.512 20.36C98.472 19.96 97.5786 19.3333 96.832 18.48C96.112 17.6 95.752 16.52 95.752 15.24C95.752 13.6133 96.3786 12.3733 97.632 11.52C98.8853 10.64 100.405 10.2 102.192 10.2H109.272Z" fill="white"/>
<path d="M79.5771 13.5599L86.7371 6.3999V10.1999H92.1371V13.5599H86.7371V21.7999C86.7371 22.7332 86.8838 23.5066 87.1771 24.1199C87.4971 24.7332 87.9505 25.1732 88.5371 25.4399C89.1238 25.6799 89.6705 25.8399 90.1771 25.9199C90.7105 25.9999 91.3638 26.0399 92.1371 26.0399V29.3999C89.0705 29.3999 86.8038 28.8132 85.3372 27.6399C83.8705 26.4666 83.1371 24.5199 83.1371 21.7999V13.5599H79.5771Z" fill="white"/>
<path d="M67.1484 29.4V18.48C67.1484 15.4133 67.7218 13.2933 68.8684 12.12C69.4284 11.5333 70.1084 11.0933 70.9084 10.7999C71.7084 10.5066 72.4018 10.3333 72.9884 10.28C73.6018 10.2266 74.4284 10.2 75.4684 10.2H78.9884V13.56H74.7484C74.2151 13.56 73.8018 13.5733 73.5084 13.6C73.2151 13.6266 72.8684 13.72 72.4684 13.88C72.0684 14.04 71.7218 14.2933 71.4284 14.64C70.9218 15.28 70.6684 16.56 70.6684 18.48V29.4H67.1484Z" fill="white"/>
<path d="M20.7568 38.5198V19.7998C20.7568 18.4131 21.0102 17.1065 21.5168 15.8798C22.0235 14.6531 22.7168 13.5998 23.5968 12.7198C24.4768 11.8131 25.5168 11.1065 26.7168 10.5998C27.9168 10.0665 29.1968 9.7998 30.5568 9.7998C31.9168 9.7998 33.1835 10.0665 34.3568 10.5998C35.5568 11.1065 36.5968 11.8131 37.4768 12.7198C38.3835 13.6265 39.0902 14.6931 39.5968 15.9198C40.1035 17.1198 40.3568 18.4131 40.3568 19.7998C40.3568 21.1865 40.1035 22.4931 39.5968 23.7198C39.1168 24.9198 38.4368 25.9731 37.5568 26.8798C36.6768 27.7865 35.6368 28.5065 34.4368 29.0398C33.2368 29.5465 31.9435 29.7998 30.5568 29.7998C28.8502 29.7998 27.2635 29.3998 25.7968 28.5998V24.9998C27.1035 25.9598 28.6502 26.4398 30.4368 26.4398C31.3968 26.4398 32.2635 26.2798 33.0368 25.9598C33.8368 25.6131 34.5035 25.1465 35.0368 24.5598C35.5968 23.9731 36.0235 23.2798 36.3168 22.4798C36.6102 21.6531 36.7568 20.7598 36.7568 19.7998C36.7568 18.8398 36.6102 17.9598 36.3168 17.1598C36.0235 16.3331 35.6102 15.6265 35.0768 15.0398C34.5435 14.4531 33.8902 13.9998 33.1168 13.6798C32.3702 13.3331 31.5168 13.1598 30.5568 13.1598C29.6235 13.1598 28.7702 13.3198 27.9968 13.6398C27.2502 13.9598 26.5968 14.4131 26.0368 14.9998C25.5035 15.5865 25.0902 16.2931 24.7968 17.1198C24.5035 17.9198 24.3568 18.8131 24.3568 19.7998V38.5198H20.7568Z" fill="white"/>
<path d="M15.12 1.3999V4.9199H8.04C5.34667 4.9199 4 6.01324 4 8.1999C4 9.37324 4.58667 10.3732 5.76 11.1999C6.96 11.9999 8.57333 12.7732 10.6 13.5199C11.5067 13.8666 12.28 14.2266 12.92 14.5999C13.56 14.9466 14.2 15.4132 14.84 15.9999C15.48 16.5866 15.96 17.3466 16.28 18.2799C16.6 19.1866 16.76 20.2399 16.76 21.4399C16.76 22.7732 16.48 23.9732 15.92 25.0399C15.36 26.0799 14.64 26.9066 13.76 27.5199C12.88 28.1066 11.9733 28.5599 11.04 28.8799C10.1333 29.1732 9.24 29.3332 8.36 29.3599C7.98667 29.3866 7.45333 29.3999 6.76 29.3999H0.52V25.8799H6.64C8.45333 25.8799 9.93333 25.5066 11.08 24.7599C12.2267 23.9866 12.8 22.8666 12.8 21.3999C12.8 20.6799 12.64 20.0532 12.32 19.5199C12 18.9599 11.5333 18.4799 10.92 18.0799C10.3333 17.6799 9.72 17.3332 9.08 17.0399C8.46667 16.7466 7.72 16.4399 6.84 16.1199C6.6 16.0399 6.41333 15.9732 6.28 15.9199C2.09333 14.3199 0 11.7066 0 8.0799C0 5.8399 0.72 4.17324 2.16 3.0799C3.6 1.9599 5.48 1.3999 7.8 1.3999H15.12Z" fill="white"/>
<circle cx="53.2002" cy="20.3999" r="10" fill="url(#paint0_linear_14_2123)"/>
<defs>
<linearGradient id="paint0_linear_14_2123" x1="43.2002" y1="20.3999" x2="63.2002" y2="20.3999" gradientUnits="userSpaceOnUse">
<stop stop-color="#00FFA3"/>
<stop offset="1" stop-color="#00EFFF"/>
</linearGradient>
</defs>
</svg>
