<svg width="250" height="200" viewBox="0 0 250 200" fill="none" xmlns="http://www.w3.org/2000/svg">
<path fill-rule="evenodd" clip-rule="evenodd" d="M224.996 100C224.996 93.3696 227.63 87.0107 232.318 82.3223C237.007 77.6339 243.366 75 249.996 75V25C249.996 18.3696 247.362 12.0107 242.674 7.32233C237.985 2.63392 231.626 0 224.996 0H24.9961C18.3657 0 12.0068 2.63392 7.31842 7.32233C2.63001 12.0107 -0.00390625 18.3696 -0.00390625 25V75C6.6265 75 12.9854 77.6339 17.6738 82.3223C22.3622 87.0107 24.9961 93.3696 24.9961 100C24.9961 106.63 22.3622 112.989 17.6738 117.678C12.9854 122.366 6.6265 125 -0.00390625 125V175C-0.00390625 181.63 2.63001 187.989 7.31842 192.678C12.0068 197.366 18.3657 200 24.9961 200H224.996C231.626 200 237.985 197.366 242.674 192.678C247.362 187.989 249.996 181.63 249.996 175V125C243.366 125 237.007 122.366 232.318 117.678C227.63 112.989 224.996 106.63 224.996 100ZM71 89.5001C69.4087 89.5001 67.8826 88.789 66.7574 87.5231C65.6321 86.2572 65 84.5403 65 82.7501C65 80.9599 65.6321 79.243 66.7574 77.9772C67.8826 76.7113 69.4087 76.0001 71 76.0001C72.5913 76.0001 74.1174 76.7113 75.2427 77.9772C76.3679 79.243 77 80.9599 77 82.7501C77 84.5403 76.3679 86.2572 75.2427 87.5231C74.1174 88.789 72.5913 89.5001 71 89.5001ZM179 89.5001C177.409 89.5001 175.883 88.789 174.757 87.5231C173.632 86.2572 173 84.5403 173 82.7501C173 80.9599 173.632 79.243 174.757 77.9772C175.883 76.7113 177.409 76.0001 179 76.0001C180.591 76.0001 182.117 76.7113 183.243 77.9772C184.368 79.243 185 80.9599 185 82.7501C185 84.5403 184.368 86.2572 183.243 87.5231C182.117 88.789 180.591 89.5001 179 89.5001ZM79.1182 142.161C85.7886 121.423 111.621 108.013 138.162 114.034C145.578 115.793 152.443 119.292 158.157 124.228C163.876 129.168 168.27 135.397 170.956 142.372C171.763 144.467 174.158 145.527 176.305 144.74C178.453 143.954 179.54 141.619 178.734 139.524C175.572 131.312 170.398 123.979 163.665 118.163C156.932 112.348 148.843 108.226 140.102 106.157L140.065 106.148C110.122 99.3453 79.4066 114.196 71.1915 139.736C70.5049 141.871 71.7228 144.144 73.9117 144.813C76.1006 145.483 78.4316 144.295 79.1182 142.161Z" fill="#282828"/>
</svg>
